HIERARCHY
ROOT Hips
{
  OFFSET 263.056 91.6644 -274.608
  CHANNELS 6 Xposition Yposition Zposition Zrotation Xrotation Yrotation
  JOINT LeftUpLeg
  {
    OFFSET 8.64259 1.95398 -2.38835
    CHANNELS 3 Zrotation Xrotation Yrotation
    JOINT LeftLeg
    {
      OFFSET 43.7702 0 0
      CHANNELS 3 Zrotation Xrotation Yrotation
      JOINT LeftFoot
      {
        OFFSET 40.6238 0 0
        CHANNELS 3 Zrotation Xrotation Yrotation
        JOINT LeftToeBase
        {
          OFFSET 12.7242 0 0
          CHANNELS 3 Zrotation Xrotation Yrotation
          End Site
          {
            OFFSET 0 0 0
          }
        }
      }
    }
  }
  JOINT RightUpLeg
  {
    OFFSET -8.2249 1.95398 -2.59336
    CHANNELS 3 Zrotation Xrotation Yrotation
    JOINT RightLeg
    {
      OFFSET 43.5653 0 0
      CHANNELS 3 Zrotation Xrotation Yrotation
      JOINT RightFoot
      {
        OFFSET 40.6238 0 0
        CHANNELS 3 Zrotation Xrotation Yrotation
        JOINT RightToeBase
        {
          OFFSET 12.7242 0 0
          CHANNELS 3 Zrotation Xrotation Yrotation
          End Site
          {
            OFFSET 0 0 0
          }
        }
      }
    }
  }
  JOINT Spine
  {
    OFFSET 0.165834 0.87714 6.61349
    CHANNELS 3 Zrotation Xrotation Yrotation
    JOINT Spine1
    {
      OFFSET 7.38963 1.71661e-005 0
      CHANNELS 3 Zrotation Xrotation Yrotation
      JOINT Spine2
      {
        OFFSET 11.9445 1.14441e-005 0
        CHANNELS 3 Zrotation Xrotation Yrotation
        JOINT Spine3
        {
          OFFSET 14.7254 4.19617e-005 0
          CHANNELS 3 Zrotation Xrotation Yrotation
          JOINT Spine4
          {
            OFFSET 10.9679 0 0
            CHANNELS 3 Zrotation Xrotation Yrotation
            JOINT RightShoulder
            {
              OFFSET 2.46616 -1.6653 3.69651
              CHANNELS 3 Zrotation Xrotation Yrotation
              JOINT RightArm
              {
                OFFSET 13.0012 0 0
                CHANNELS 3 Zrotation Xrotation Yrotation
                JOINT RightForeArm
                {
                  OFFSET 28.7848 1.52588e-005 0
                  CHANNELS 3 Zrotation Xrotation Yrotation
                  JOINT RightHand
                  {
                    OFFSET 26.5688 1.52588e-005 0
                    CHANNELS 3 Zrotation Xrotation Yrotation
                    End Site
                    {
                      OFFSET 0 0 0
                    }
                  }
                }
              }
            }
            JOINT LeftShoulder
            {
              OFFSET 2.38034 -1.29275 -3.7523
              CHANNELS 3 Zrotation Xrotation Yrotation
              JOINT LeftArm
              {
                OFFSET 16.3182 6.10352e-005 0
                CHANNELS 3 Zrotation Xrotation Yrotation
                JOINT LeftForeArm
                {
                  OFFSET 27.0901 0 0
                  CHANNELS 3 Zrotation Xrotation Yrotation
                  JOINT LeftHand
                  {
                    OFFSET 24.5451 1.52588e-005 0
                    CHANNELS 3 Zrotation Xrotation Yrotation
                    End Site
                    {
                      OFFSET 0 0 0
                    }
                  }
                }
              }
            }
            JOINT Neck
            {
              OFFSET 5.0226 -0.0266342 0
              CHANNELS 3 Zrotation Xrotation Yrotation
              JOINT Head
              {
                OFFSET 6.69364 2.86102e-005 0
                CHANNELS 3 Zrotation Xrotation Yrotation
                End Site
                {
                  OFFSET 0 0 0
                }
              }
            }
          }
        }
      }
    }
  }
}
MOTION
Frames:	7
Frame Time:	0.0416667
-254.672 95.2981 -236.535 65.5517 -46.2534 70.1751 -170.194 40.9385 87.763 -7.18814 8.53251 -5.68105 37.1275 -14.7857 -6.15322 39.0637 11.9519 5.47791 168.155 69.1159 102.24 -72.4442 -27.4332 -4.63067 86.7527 -13.3524 -8.69114 70.7796 66.5618 121.714 0.998735 5.95134 -89.3104 14.9622 2.31854 1.04323 3.29297 2.3622 0.940133 -19.2508 1.89782 1.69193 0.761804 1.89783 1.69194 84.2768 -47.3418 -110.419 32.3448 -12.6866 22.1088 -29.3389 -1.93947 -100.31 -31.4984 3.10729 -15.8628 -94.0082 -40.4742 69.8344 -50.7127 6.93627 40.1258 7.12111 -0.918772 -76.7039 38.7008 2.74546 3.19086 4.60471 -2.24458 -0.469708 2.76968 -2.15483 -0.681828 
-248.791 91.4655 -230.914 74.9067 -54.441 74.3881 -165.912 36.8561 87.4703 -26.3773 15.8536 -9.48719 51.1062 -6.7901 5.17175 34.1235 6.07165 -7.29744 179.246 61.9874 96.2612 -92.5321 -21.209 -7.20603 98.2225 -23.1522 -6.45716 55.3327 56.3921 137.62 1.52934 6.76285 -88.913 13.3212 3.55927 1.72044 1.6543 3.63151 1.56196 -20.8999 2.87772 2.71095 -0.887287 2.87773 2.71095 84.3733 -49.3993 -109.568 35.3837 -17.4495 24.6198 -21.1082 -0.00107155 -90.0061 -32.7509 1.0317 -7.35547 -95.9349 -41.6376 67.1197 -45.8946 7.56426 36.2998 7.28208 -0.65143 -76.2523 42.2822 3.18508 3.59663 3.99945 -1.88151 -2.11825 3.1425 -1.49268 -0.218327 
-240.469 89.1147 -224.107 82.0838 -51.1966 80.3296 -165.811 33.1729 84.5258 -41.8646 15.1203 -8.75166 62.7898 7.70305 14.6715 37.5983 8.90686 -17.1563 179.84 46.8163 91.861 -104.437 -10.0947 -5.67087 111.064 -30.7913 -2.99163 33.5178 -2.83464 157.187 0.79118 7.26396 -88.8085 12.3195 2.13672 2.13712 0.648429 2.22868 2.04102 -21.8772 1.39599 2.68015 -1.86452 1.39597 2.68014 82.9632 -51.1822 -111.069 36.0491 -18.5509 25.6935 -16.9987 2.26226 -83.4017 -28.0701 -2.34237 4.94602 -98.2585 -42.9073 63.9227 -39.1035 7.45435 30.6164 6.79958 -1.07793 -76.3795 39.7663 3.31618 4.44548 5.65216 -0.908199 -3.93952 3.51573 -0.117233 0.379123 
-232.07 87.9347 -218.003 89.1369 -42.9355 85.3049 -170.351 25.0154 81.4468 -48.1535 16.3324 -4.73839 65.0627 14.0149 19.8629 47.9547 18.4855 -11.574 172.976 36.3837 91.4662 -109.76 1.19008 -4.67842 87.0964 -17.8397 -6.11102 -87.4036 -42.2406 14.1724 -0.383102 8.01209 -88.7395 10.8447 -0.180729 2.51973 -0.828692 -0.0697118 2.52523 -23.3461 -0.929439 2.34912 -3.33349 -0.929441 2.34912 82.1137 -52.3282 -111.92 34.8933 -17.8694 25.6563 -13.0393 -3.67623 -72.7256 -33.1787 -1.64936 1.11914 -101.375 -42.1454 58.7406 -32.0265 8.15622 21.836 6.1565 -0.766555 -73.9256 41.2795 2.99553 3.32634 9.62202 -0.718447 -5.42611 1.84476 0.522846 0.41269 
-223.753 88.9187 -211.109 89.6989 -41.3412 87.6175 -171.942 16.6967 83.882 -46.465 19.0526 -3.26193 63.5386 13.6289 21.1965 55.2387 26.2623 -7.43686 173.23 40.8988 92.8524 -102.278 11.2004 -4.26179 44.6257 -0.580752 -0.0903906 27.1402 -0.109985 0.115402 -0.732529 8.01841 -89.0097 10.8422 -1.00104 2.0632 -0.830062 -0.909276 2.10523 -23.359 -1.57478 1.66711 -3.34636 -1.57478 1.6671 81.4685 -53.9611 -112.279 34.2491 -18.1145 30.5565 -12.2005 -5.36816 -67.8756 -32.964 -1.38103 0.275326 -100.64 -41.4788 59.5889 -29.5333 7.84302 16.732 9.35112 -0.929113 -79.0475 39.239 3.72112 5.63901 8.17876 -0.12301 -5.90845 2.26975 1.1846 1.34239 
-214.923 91.8985 -203.568 90.1842 -40.4556 89.8149 -173.261 6.09843 85.9809 -39.5198 21.869 -1.50911 59.0126 4.37494 11.8936 57.6742 30.5154 -2.31679 174.887 41.9881 93.4647 -86.4024 10.6376 -2.78451 47.8166 -0.0182966 0.350772 31.0792 -0.248627 9.52919 -1.01864 7.90517 -89.3164 11.0735 -1.71035 1.52497 -0.597294 -1.64157 1.59876 -23.1381 -2.08956 0.940364 -3.1254 -2.08956 0.940363 81.5854 -54.8845 -111.795 34.9616 -18.0652 36.6772 -12.7958 -6.49604 -66.2203 -24.5733 -1.47604 2.58995 -98.8219 -40.6056 62.0852 -30.3232 7.38028 14.0731 13.0297 -2.11727 -86.1793 39.1301 4.20486 6.94209 5.84935 0.639689 -6.51854 2.33534 2.01196 2.89048 
-206.094 94.3868 -195.485 90.4919 -38.919 90.0107 -174.151 -1.58206 91.7313 -30.2945 26.9461 -0.0634124 48.1001 -7.59085 1.77325 53.4324 29.7504 7.2181 176.796 39.8072 91.9232 -66.2941 2.83085 -1.03124 52.0831 1.12279 1.06002 33.4688 0.454791 -2.76712 -1.40719 7.75812 -89.527 11.3727 -2.57946 1.20152 -0.296372 -2.52407 1.31392 -22.8514 -2.82123 0.370202 -2.83873 -2.82122 0.370192 82.6795 -53.1371 -110.823 36.7348 -16.2327 41.6754 -15.0166 -9.22248 -63.8133 -27.9396 -0.889859 -0.81323 -97.7187 -40.0678 63.6366 -32.6303 7.78431 13.0874 14.5391 -3.588 -91.4094 37.5406 4.13829 7.24343 4.43451 1.52932 -5.33768 2.0263 2.61049 3.568 
